<?xml version="1.0" encoding="UTF-8"?>
<!DOCTYPE svg PUBLIC "-//W3C//DTD SVG 1.1//EN" "http://www.w3.org/Graphics/SVG/1.1/DTD/svg11.dtd">
<svg xmlns="http://www.w3.org/2000/svg" version="1.1" width="96px" height="96px" style="shape-rendering:geometricPrecision; text-rendering:geometricPrecision; image-rendering:optimizeQuality; fill-rule:evenodd; clip-rule:evenodd" xmlns:xlink="http://www.w3.org/1999/xlink">
<g><path style="opacity:0.865" fill="#fc3961" d="M -0.5,9.5 C 9.5,9.5 19.5,9.5 29.5,9.5C 31.0419,10.1635 32.7086,10.8302 34.5,11.5C 31.3566,15.811 28.0233,19.9776 24.5,24C 23.2068,24.49 21.8734,24.6567 20.5,24.5C 19.5,23.8333 18.5,23.1667 17.5,22.5C 11.4826,18.8064 5.48264,15.1397 -0.5,11.5C -0.5,10.8333 -0.5,10.1667 -0.5,9.5 Z"/></g>
<g><path style="opacity:0.974" fill="#f7345e" d="M 29.5,9.5 C 33.9912,8.88508 37.9912,9.88508 41.5,12.5C 38.8873,18.6282 34.8873,23.7948 29.5,28C 27.6316,28.0038 25.7983,27.5038 24,26.5C 23.2352,26.5699 22.7352,26.9033 22.5,27.5C 22.1667,27.5 21.8333,27.5 21.5,27.5C 21.4431,26.391 21.1098,25.391 20.5,24.5C 21.8734,24.6567 23.2068,24.49 24.5,24C 28.0233,19.9776 31.3566,15.811 34.5,11.5C 32.7086,10.8302 31.0419,10.1635 29.5,9.5 Z"/></g>
<g><path style="opacity:0.97" fill="#a730bf" d="M 64.5,9.5 C 72.7282,13.0661 80.7282,17.0661 88.5,21.5C 88.631,22.2389 88.4643,22.9056 88,23.5C 86.6703,22.4178 85.1703,21.7512 83.5,21.5C 80.0437,18.3478 76.0437,17.0145 71.5,17.5C 66.8015,22.9247 64.8015,28.9247 65.5,35.5C 65.1667,35.5 64.8333,35.5 64.5,35.5C 64.5,26.8333 64.5,18.1667 64.5,9.5 Z"/></g>
<g><path style="opacity:1" fill="#c61042" d="M -0.5,11.5 C 5.48264,15.1397 11.4826,18.8064 17.5,22.5C 11.9262,24.4533 5.92619,25.12 -0.5,24.5C -0.5,20.1667 -0.5,15.8333 -0.5,11.5 Z"/></g>
<g><path style="opacity:0.976" fill="#f2325b" d="M 41.5,12.5 C 42.8333,13.1667 44.1667,13.8333 45.5,14.5C 45.6567,15.8734 45.49,17.2068 45,18.5C 40.9478,23.7168 36.4478,28.3834 31.5,32.5C 28.2895,31.3072 25.2895,29.6405 22.5,27.5C 22.7352,26.9033 23.2352,26.5699 24,26.5C 25.7983,27.5038 27.6316,28.0038 29.5,28C 34.8873,23.7948 38.8873,18.6282 41.5,12.5 Z"/></g>
<g><path style="opacity:0.989" fill="#ee2f5a" d="M 45.5,14.5 C 46.8333,15.1667 48.1667,15.8333 49.5,16.5C 49.7706,18.4305 50.7706,19.7638 52.5,20.5C 52.6495,21.552 52.4828,22.552 52,23.5C 48.1667,27.3333 44.3333,31.1667 40.5,35C 39.552,35.4828 38.552,35.6495 37.5,35.5C 36.1805,34.0582 34.5138,33.3915 32.5,33.5C 31.8333,33.5 31.5,33.1667 31.5,32.5C 36.4478,28.3834 40.9478,23.7168 45,18.5C 45.49,17.2068 45.6567,15.8734 45.5,14.5 Z"/></g>
<g><path style="opacity:0.977" fill="#b135c4" d="M 83.5,21.5 C 82.5041,21.4142 81.6708,21.7476 81,22.5C 79.185,26.7958 76.8517,30.7958 74,34.5C 73.3872,36.4952 73.8872,38.1619 75.5,39.5C 74.1667,39.1667 72.8333,38.8333 71.5,38.5C 69.0301,38.3465 67.0301,37.3465 65.5,35.5C 64.8015,28.9247 66.8015,22.9247 71.5,17.5C 76.0437,17.0145 80.0437,18.3478 83.5,21.5 Z"/></g>
<g><path style="opacity:0.985" fill="#771284" d="M 64.5,9.5 C 64.5,18.1667 64.5,26.8333 64.5,35.5C 61.8333,36.8333 59.1667,38.1667 56.5,39.5C 55.8826,39.3893 55.3826,39.056 55,38.5C 55.1285,32.0835 54.2952,26.0835 52.5,20.5C 50.7706,19.7638 49.7706,18.4305 49.5,16.5C 54.3444,13.9121 59.3444,11.5788 64.5,9.5 Z"/></g>
<g><path style="opacity:0.998" fill="#b738c8" d="M 83.5,21.5 C 85.1703,21.7512 86.6703,22.4178 88,23.5C 88.4643,22.9056 88.631,22.2389 88.5,21.5C 90.0009,22.7515 91.6675,23.7515 93.5,24.5C 91.6309,25.1646 89.6309,25.8313 87.5,26.5C 84.4462,31.3581 81.7795,36.3581 79.5,41.5C 77.847,41.3404 76.5137,40.6737 75.5,39.5C 73.8872,38.1619 73.3872,36.4952 74,34.5C 76.8517,30.7958 79.185,26.7958 81,22.5C 81.6708,21.7476 82.5041,21.4142 83.5,21.5 Z"/></g>
<g><path style="opacity:0.98" fill="#ca1e48" d="M 17.5,22.5 C 18.5,23.1667 19.5,23.8333 20.5,24.5C 21.1098,25.391 21.4431,26.391 21.5,27.5C 21.5,37.1667 21.5,46.8333 21.5,56.5C 21.1667,56.5 20.8333,56.5 20.5,56.5C 20.5,55.1667 20.5,53.8333 20.5,52.5C 20.5,50.1667 20.5,47.8333 20.5,45.5C 20.5,42.5 20.5,39.5 20.5,36.5C 20.7564,34.2075 20.4231,32.0408 19.5,30C 12.8417,29.5004 6.17499,29.3337 -0.5,29.5C -0.5,27.8333 -0.5,26.1667 -0.5,24.5C 5.92619,25.12 11.9262,24.4533 17.5,22.5 Z"/></g>
<g><path style="opacity:1" fill="#bc3acb" d="M 93.5,24.5 C 94.1667,24.8333 94.8333,25.1667 95.5,25.5C 95.5,33.1667 95.5,40.8333 95.5,48.5C 89.5969,47.8914 84.2636,45.5581 79.5,41.5C 81.7795,36.3581 84.4462,31.3581 87.5,26.5C 89.6309,25.8313 91.6309,25.1646 93.5,24.5 Z"/></g>
<g><path style="opacity:1" fill="#e52a56" d="M 52.5,20.5 C 54.2952,26.0835 55.1285,32.0835 55,38.5C 55.3826,39.056 55.8826,39.3893 56.5,39.5C 56.5,41.8333 56.5,44.1667 56.5,46.5C 49.4436,44.1164 43.1103,40.4498 37.5,35.5C 38.552,35.6495 39.552,35.4828 40.5,35C 44.3333,31.1667 48.1667,27.3333 52,23.5C 52.4828,22.552 52.6495,21.552 52.5,20.5 Z"/></g>
<g><path style="opacity:0.97" fill="#d11949" d="M -0.5,29.5 C 6.17499,29.3337 12.8417,29.5004 19.5,30C 20.4231,32.0408 20.7564,34.2075 20.5,36.5C 13.7808,34.5953 6.78084,33.9287 -0.5,34.5C -0.5,32.8333 -0.5,31.1667 -0.5,29.5 Z"/></g>
<g><path style="opacity:0.989" fill="#d91f4d" d="M -0.5,34.5 C 6.78084,33.9287 13.7808,34.5953 20.5,36.5C 20.5,39.5 20.5,42.5 20.5,45.5C 13.7808,43.5953 6.78084,42.9287 -0.5,43.5C -0.5,40.5 -0.5,37.5 -0.5,34.5 Z"/></g>
<g><path style="opacity:0.974" fill="#e32653" d="M -0.5,43.5 C 6.78084,42.9287 13.7808,43.5953 20.5,45.5C 20.5,47.8333 20.5,50.1667 20.5,52.5C 19.596,51.791 19.2627,50.791 19.5,49.5C 12.8333,49.5 6.16667,49.5 -0.5,49.5C -0.5,47.5 -0.5,45.5 -0.5,43.5 Z"/></g>
<g><path style="opacity:0.974" fill="#a31248" d="M 32.5,33.5 C 34.5138,33.3915 36.1805,34.0582 37.5,35.5C 43.1103,40.4498 49.4436,44.1164 56.5,46.5C 56.5,49.8333 56.5,53.1667 56.5,56.5C 52.5046,55.9993 48.8379,54.6659 45.5,52.5C 44.4863,51.3263 43.153,50.6596 41.5,50.5C 40.3406,48.7497 38.674,47.7497 36.5,47.5C 35.713,45.8958 34.3797,45.2291 32.5,45.5C 32.5,41.5 32.5,37.5 32.5,33.5 Z"/></g>
<g><path style="opacity:0.999" fill="#b007c7" d="M 36.5,47.5 C 38.674,47.7497 40.3406,48.7497 41.5,50.5C 40.6236,50.3691 39.9569,50.7025 39.5,51.5C 43.1722,59.5102 46.8388,67.5102 50.5,75.5C 48.9974,76.0522 47.3307,76.0522 45.5,75.5C 45.5,74.5 45.5,73.5 45.5,72.5C 44.325,72.719 43.325,72.3857 42.5,71.5C 40.6068,66.7133 38.4402,62.0466 36,57.5C 35.1925,53.9733 35.3592,50.6399 36.5,47.5 Z"/></g>
<g><path style="opacity:0.999" fill="#9216ae" d="M 71.5,38.5 C 72.8333,38.8333 74.1667,39.1667 75.5,39.5C 76.5137,40.6737 77.847,41.3404 79.5,41.5C 84.2636,45.5581 89.5969,47.8914 95.5,48.5C 95.5,55.8333 95.5,63.1667 95.5,70.5C 95.1667,70.5 94.8333,70.5 94.5,70.5C 94.6054,66.4517 94.2721,62.4517 93.5,58.5C 93.7683,55.8806 93.435,53.3806 92.5,51C 85.8623,51.2109 79.1956,51.3776 72.5,51.5C 72.7693,47.0685 72.436,42.7352 71.5,38.5 Z"/></g>
<g><path style="opacity:0.978" fill="#b205c9" d="M 41.5,50.5 C 43.153,50.6596 44.4863,51.3263 45.5,52.5C 44.9569,52.56 44.6236,52.8933 44.5,53.5C 48.7621,63.0784 53.4288,72.4117 58.5,81.5C 58.0431,82.2975 57.3764,82.6309 56.5,82.5C 52.6733,80.754 49.0066,78.754 45.5,76.5C 45.5,76.1667 45.5,75.8333 45.5,75.5C 47.3307,76.0522 48.9974,76.0522 50.5,75.5C 46.8388,67.5102 43.1722,59.5102 39.5,51.5C 39.9569,50.7025 40.6236,50.3691 41.5,50.5 Z"/></g>
<g><path style="opacity:0.979" fill="#ea2c57" d="M -0.5,49.5 C 6.16667,49.5 12.8333,49.5 19.5,49.5C 19.2627,50.791 19.596,51.791 20.5,52.5C 20.5,53.8333 20.5,55.1667 20.5,56.5C 20.5,56.8333 20.5,57.1667 20.5,57.5C 13.7808,55.5953 6.78084,54.9287 -0.5,55.5C -0.5,53.5 -0.5,51.5 -0.5,49.5 Z"/></g>
<g><path style="opacity:0.993" fill="#b404ca" d="M 45.5,52.5 C 48.8379,54.6659 52.5046,55.9993 56.5,56.5C 57.4916,56.3284 58.1583,56.6618 58.5,57.5C 56.6382,58.3922 54.6382,58.5589 52.5,58C 55.8172,64.7989 58.9838,71.6322 62,78.5C 63.3608,72.5933 63.8608,66.5933 63.5,60.5C 63.8333,60.5 64.1667,60.5 64.5,60.5C 64.5,69.1667 64.5,77.8333 64.5,86.5C 61.5152,85.6743 58.8485,84.341 56.5,82.5C 57.3764,82.6309 58.0431,82.2975 58.5,81.5C 53.4288,72.4117 48.7621,63.0784 44.5,53.5C 44.6236,52.8933 44.9569,52.56 45.5,52.5 Z"/></g>
<g><path style="opacity:0.999" fill="#9d11ba" d="M 93.5,58.5 C 87.1667,58.5 80.8333,58.5 74.5,58.5C 74.5,59.5 74.5,60.5 74.5,61.5C 74.1667,61.5 73.8333,61.5 73.5,61.5C 73.634,59.7085 73.3007,58.0418 72.5,56.5C 72.5,54.8333 72.5,53.1667 72.5,51.5C 79.1956,51.3776 85.8623,51.2109 92.5,51C 93.435,53.3806 93.7683,55.8806 93.5,58.5 Z"/></g>
<g><path style="opacity:1" fill="#af09b5" d="M 32.5,45.5 C 34.3797,45.2291 35.713,45.8958 36.5,47.5C 35.3592,50.6399 35.1925,53.9733 36,57.5C 38.4402,62.0466 40.6068,66.7133 42.5,71.5C 43.325,72.3857 44.325,72.719 45.5,72.5C 45.5,73.5 45.5,74.5 45.5,75.5C 45.5,75.8333 45.5,76.1667 45.5,76.5C 45.1667,76.5 44.8333,76.5 44.5,76.5C 42.4723,73.1632 39.4723,70.8298 35.5,69.5C 35.1119,65.411 34.1119,61.7443 32.5,58.5C 32.5,54.1667 32.5,49.8333 32.5,45.5 Z"/></g>
<g><path style="opacity:0.997" fill="#b901cf" d="M 58.5,57.5 C 60.4341,58.1103 62.1007,59.1103 63.5,60.5C 63.8608,66.5933 63.3608,72.5933 62,78.5C 58.9838,71.6322 55.8172,64.7989 52.5,58C 54.6382,58.5589 56.6382,58.3922 58.5,57.5 Z"/></g>
<g><path style="opacity:1" fill="#f3335c" d="M -0.5,55.5 C 6.78084,54.9287 13.7808,55.5953 20.5,57.5C 20.824,64.3543 20.4907,71.021 19.5,77.5C 19.5,73.1667 19.5,68.8333 19.5,64.5C 12.8333,64.5 6.16667,64.5 -0.5,64.5C -0.5,61.5 -0.5,58.5 -0.5,55.5 Z"/></g>
<g><path style="opacity:0.98" fill="#ed2e5f" d="M 31.5,58.5 C 31.8333,58.5 32.1667,58.5 32.5,58.5C 34.1119,61.7443 35.1119,65.411 35.5,69.5C 39.4723,70.8298 42.4723,73.1632 44.5,76.5C 43.391,76.5569 42.391,76.8902 41.5,77.5C 40.3876,76.6282 39.0542,76.6282 37.5,77.5C 35.9121,76.9904 34.7455,75.9904 34,74.5C 32.4034,70.7305 30.57,67.0638 28.5,63.5C 29.9524,62.0603 30.9524,60.3936 31.5,58.5 Z"/></g>
<g><path style="opacity:0.982" fill="#841da6" d="M 72.5,56.5 C 73.3007,58.0418 73.634,59.7085 73.5,61.5C 73.1765,68.0221 73.5098,74.3554 74.5,80.5C 71.5063,82.9998 68.173,84.9998 64.5,86.5C 64.5,77.8333 64.5,69.1667 64.5,60.5C 66.8831,58.6418 69.5498,57.3084 72.5,56.5 Z"/></g>
<g><path style="opacity:0.999" fill="#ab0ac3" d="M 73.5,61.5 C 73.8333,61.5 74.1667,61.5 74.5,61.5C 80.5092,61.3338 86.5092,61.5005 92.5,62C 94.4965,66.7903 93.1631,67.9569 88.5,65.5C 83.3741,65.5838 78.7074,66.5838 74.5,68.5C 74.5,71.8333 74.5,75.1667 74.5,78.5C 77.619,76.9493 80.9524,75.9493 84.5,75.5C 81.7534,78.2067 78.4201,79.8734 74.5,80.5C 73.5098,74.3554 73.1765,68.0221 73.5,61.5 Z"/></g>
<g><path style="opacity:0.927" fill="#e42753" d="M 20.5,56.5 C 20.8333,56.5 21.1667,56.5 21.5,56.5C 21.3367,58.8568 21.5034,61.1902 22,63.5C 25.3991,62.2177 28.5658,60.5511 31.5,58.5C 30.9524,60.3936 29.9524,62.0603 28.5,63.5C 30.57,67.0638 32.4034,70.7305 34,74.5C 34.7455,75.9904 35.9121,76.9904 37.5,77.5C 39.0542,76.6282 40.3876,76.6282 41.5,77.5C 37.2086,79.5476 33.0419,81.881 29,84.5C 25.8194,82.6618 22.6527,80.9952 19.5,79.5C 19.5,78.8333 19.5,78.1667 19.5,77.5C 20.4907,71.021 20.824,64.3543 20.5,57.5C 20.5,57.1667 20.5,56.8333 20.5,56.5 Z"/></g>
<g><path style="opacity:0.969" fill="#fa3860" d="M -0.5,64.5 C 6.16667,64.5 12.8333,64.5 19.5,64.5C 19.5,68.8333 19.5,73.1667 19.5,77.5C 19.5,78.1667 19.5,78.8333 19.5,79.5C 12.646,76.2119 5.97929,72.5452 -0.5,68.5C -0.5,67.1667 -0.5,65.8333 -0.5,64.5 Z"/></g>
<g><path style="opacity:0.999" fill="#a70abf" d="M 93.5,58.5 C 94.2721,62.4517 94.6054,66.4517 94.5,70.5C 92.6644,72.588 90.3311,73.9213 87.5,74.5C 88.5676,72.2598 90.2342,70.4264 92.5,69C 86.5092,68.5005 80.5092,68.3338 74.5,68.5C 78.7074,66.5838 83.3741,65.5838 88.5,65.5C 93.1631,67.9569 94.4965,66.7903 92.5,62C 86.5092,61.5005 80.5092,61.3338 74.5,61.5C 74.5,60.5 74.5,59.5 74.5,58.5C 80.8333,58.5 87.1667,58.5 93.5,58.5 Z"/></g>
<g><path style="opacity:1" fill="#b503cc" d="M 74.5,68.5 C 80.5092,68.3338 86.5092,68.5005 92.5,69C 90.2342,70.4264 88.5676,72.2598 87.5,74.5C 86.609,75.1098 85.609,75.4431 84.5,75.5C 80.9524,75.9493 77.619,76.9493 74.5,78.5C 74.5,75.1667 74.5,71.8333 74.5,68.5 Z"/></g>
</svg>